<svg t="1614284814373" class="icon" viewBox="0 0 1024 1024" version="1.1" xmlns="http://www.w3.org/2000/svg" p-id="11428" width="32" height="32"><path d="M512 1024A512 512 0 1 0 0 512 512 512 0 0 0 512 1024" fill="#0E9DE5" p-id="11429"></path><path d="M669.2864 256H355.1232a99.1232 99.1232 0 0 0-99.1232 99.1232v313.7536a99.1232 99.1232 0 0 0 99.1232 99.1232h314.1632a98.7136 98.7136 0 0 0 98.7136-99.1232V355.1232a98.7136 98.7136 0 0 0-98.7136-99.1232zM696.32 314.9824h11.4688v86.8352h-85.6064V315.392z m-258.4576 144.5888a89.2928 89.2928 0 0 1 72.9088-37.6832 88.4736 88.4736 0 0 1 72.9088 37.6832 86.4256 86.4256 0 0 1 17.2032 52.4288 90.112 90.112 0 0 1-180.224 0 89.2928 89.2928 0 0 1 18.432-52.4288z m278.9376 209.3056a48.7424 48.7424 0 0 1-48.7424 49.152H355.1232a49.152 49.152 0 0 1-49.152-49.152v-209.3056h76.5952a131.8912 131.8912 0 0 0-10.6496 52.4288 140.0832 140.0832 0 0 0 280.1664 0 138.8544 138.8544 0 0 0-10.24-52.4288h76.1856z" fill="#FFFFFF" p-id="11430"></path></svg>