<svg t="1614285239733" class="icon" viewBox="0 0 1024 1024" version="1.1" xmlns="http://www.w3.org/2000/svg" p-id="12294" width="32" height="32"><path d="M170.666667 212.2752h682.666666V849.066667H170.666667z" fill="#FFFFFF" p-id="12295"></path><path d="M512.887467 1018.897067c-207.394133 0.512-394.359467-123.784533-473.719467-314.3168a507.392 507.392 0 0 1 110.592-555.349334C296.226133 3.515733 516.949333-40.2944 708.010667 39.185067 899.447467 118.203733 1024.170667 304.196267 1024 510.429867c0 280.746667-228.4032 507.972267-511.112533 508.4672z m112.64-735.1808l-15.872 2.048c-9.728 2.048-19.456 5.085867-28.672 8.6528a126.856533 126.856533 0 0 0-72.704 86.101333 119.552 119.552 0 0 0 0 60.1088c-19.456 0-38.912-2.542933-57.344-7.6288a377.514667 377.514667 0 0 1-156.706134-75.912533 235.605333 235.605333 0 0 1-37.9392-37.205334 104.106667 104.106667 0 0 1-11.776-13.738666 142.1312 142.1312 0 0 0-13.824 33.109333 132.232533 132.232533 0 0 0 28.672 116.667733c6.656 8.1408 16.896 13.243733 23.552 20.3776-5.8368 1.024-11.8272 0.494933-17.408-1.536a126.532267 126.532267 0 0 1-27.136-7.6288l-13.824-5.102933a122.811733 122.811733 0 0 0 60.416 110.045867 89.258667 89.258667 0 0 0 41.984 16.810666c-8.192 7.133867-44.544 4.078933-57.344 2.56a129.9968 129.9968 0 0 0 81.4592 82.005334c12.288 4.590933 25.088 6.621867 37.888 6.621866a168.618667 168.618667 0 0 1-34.816 22.4256 278.050133 278.050133 0 0 1-76.8 28.0064c-11.776 2.56-24.064 2.048-37.376 4.096-13.653333 1.006933-27.409067 0.494933-40.96-1.536l11.264 6.621867c11.776 7.133867 23.552 13.243733 36.352 18.3296a498.688 498.688 0 0 0 75.264 24.456533 382.805333 382.805333 0 0 0 182.818134-6.109866c134.1952-41.7792 219.1872-139.605333 251.477333-283.767467 5.12-26.999467 7.168-55.022933 6.144-82.5344l20.48-16.810667a214.0672 214.0672 0 0 0 43.52-49.92c-23.108267 10.154667-47.616 16.861867-72.704 19.8656 5.12-2.56 9.728-6.109867 14.336-10.1888a129.3312 129.3312 0 0 0 41.472-60.1088l-15.872 8.6528a208.674133 208.674133 0 0 1-66.56 21.9136 129.621333 129.621333 0 0 0-100.898133-40.260266v0.512h-0.5632z" fill="#2FB0EC" p-id="12296"></path></svg>