<svg t="1614284610829" class="icon" viewBox="0 0 1177 1024" version="1.1" xmlns="http://www.w3.org/2000/svg" p-id="8622" width="32" height="32"><path d="M829.44 107.52v230.4c-5.12 5.12-10.24 10.24-20.48 15.36-5.12 5.12-10.24 5.12-15.36 5.12-5.12 0-10.24 0-10.24-5.12-5.12-5.12-5.12-10.24-5.12-15.36V107.52H716.8V358.4c0 20.48 5.12 30.72 10.24 40.96 5.12 10.24 15.36 15.36 30.72 15.36 10.24 0 25.6-5.12 35.84-10.24 10.24-5.12 25.6-15.36 35.84-30.72V409.6h61.44V107.52h-61.44z m-184.32 15.36c-15.36-15.36-35.84-20.48-61.44-20.48s-51.2 5.12-66.56 20.48c-15.36 10.24-25.6 30.72-25.6 51.2v153.6c0 25.6 10.24 46.08 25.6 61.44 15.36 15.36 35.84 20.48 61.44 20.48s51.2-5.12 66.56-20.48c15.36-15.36 25.6-35.84 25.6-61.44v-153.6c0-20.48-10.24-35.84-25.6-51.2z m-35.84 215.04c0 10.24 0 15.36-5.12 20.48-5.12 5.12-10.24 5.12-20.48 5.12-5.12 0-15.36 0-20.48-5.12-5.12-5.12-5.12-10.24-5.12-20.48V174.08c0-5.12 0-10.24 5.12-15.36 5.12-5.12 10.24-5.12 15.36-5.12 5.12 0 15.36 0 20.48 5.12 5.12 5.12 5.12 10.24 5.12 15.36v163.84zM419.84 0l-40.96 163.84h-5.12L327.68 0H261.12l81.92 245.76V409.6H409.6V240.64L486.4 0H419.84z m471.04 716.8c5.12 5.12 5.12 15.36 5.12 25.6v25.6h-46.08v-25.6c0-10.24 0-20.48 5.12-25.6 5.12-5.12 10.24-10.24 20.48-10.24 5.12 5.12 10.24 5.12 15.36 10.24z m-184.32 0c-5.12-5.12-10.24-5.12-15.36-5.12h-10.24c-5.12 0-10.24 5.12-10.24 10.24v168.96c5.12 5.12 10.24 10.24 15.36 10.24 5.12 0 10.24 5.12 10.24 5.12 5.12 0 10.24 0 15.36-5.12 5.12-5.12 5.12-10.24 5.12-20.48v-143.36c-5.12-10.24-5.12-15.36-10.24-20.48z m0 0c-5.12-5.12-10.24-5.12-15.36-5.12h-10.24c-5.12 0-10.24 5.12-10.24 10.24v168.96c5.12 5.12 10.24 10.24 15.36 10.24 5.12 0 10.24 5.12 10.24 5.12 5.12 0 10.24 0 15.36-5.12 5.12-5.12 5.12-10.24 5.12-20.48v-143.36c-5.12-10.24-5.12-15.36-10.24-20.48z m302.08-209.92H168.96C76.8 506.88 0 583.68 0 675.84v174.08C0 947.2 76.8 1024 168.96 1024h839.68c92.16 0 168.96-76.8 168.96-168.96v-174.08c0-97.28-76.8-174.08-168.96-174.08z m-614.4 117.76H332.8v317.44H271.36v-317.44H209.92v-56.32h184.32v56.32z m179.2 317.44h-56.32v-30.72c-10.24 10.24-20.48 20.48-30.72 25.6-10.24 5.12-20.48 10.24-30.72 10.24-10.24 0-20.48-5.12-30.72-10.24-5.12-10.24-10.24-20.48-10.24-35.84v-230.4h51.2v209.92c0 5.12 0 10.24 5.12 15.36 0 5.12 5.12 5.12 10.24 5.12s10.24 0 15.36-5.12l15.36-15.36v-209.92h56.32v271.36z m194.56-56.32c0 20.48-5.12 35.84-10.24 46.08-10.24 10.24-20.48 15.36-35.84 15.36-10.24 0-20.48 0-25.6-5.12-10.24-5.12-15.36-10.24-25.6-20.48v20.48H614.4v-368.64h51.2v117.76c5.12-10.24 15.36-15.36 25.6-20.48 10.24-5.12 15.36-5.12 25.6-5.12 15.36 0 30.72 5.12 40.96 15.36 10.24 10.24 15.36 30.72 15.36 51.2v153.6z m184.32-71.68h-102.4v51.2c0 15.36 0 25.6 5.12 30.72 5.12 5.12 10.24 10.24 20.48 10.24s15.36 0 20.48-5.12c5.12-5.12 5.12-15.36 5.12-30.72v-10.24h56.32v15.36c0 30.72-5.12 51.2-20.48 61.44-15.36 15.36-30.72 20.48-61.44 20.48-25.6 0-40.96-5.12-56.32-20.48-15.36-15.36-20.48-35.84-20.48-61.44v-122.88c0-25.6 5.12-40.96 25.6-56.32 15.36-15.36 35.84-20.48 56.32-20.48 25.6 0 40.96 5.12 56.32 20.48 15.36 15.36 20.48 30.72 20.48 61.44v56.32z m-266.24-102.4h-10.24c-5.12 0-10.24 5.12-10.24 10.24v168.96c5.12 5.12 10.24 10.24 15.36 10.24 5.12 0 10.24 5.12 10.24 5.12 5.12 0 10.24 0 15.36-5.12 5.12-5.12 5.12-10.24 5.12-20.48v-143.36c0-10.24 0-15.36-5.12-20.48-5.12-5.12-10.24-5.12-20.48-5.12z m20.48 5.12c-5.12-5.12-10.24-5.12-15.36-5.12h-10.24c-5.12 0-10.24 5.12-10.24 10.24v168.96c5.12 5.12 10.24 10.24 15.36 10.24 5.12 0 10.24 5.12 10.24 5.12 5.12 0 10.24 0 15.36-5.12 5.12-5.12 5.12-10.24 5.12-20.48v-143.36c-5.12-10.24-5.12-15.36-10.24-20.48z m0 0c-5.12-5.12-10.24-5.12-15.36-5.12h-10.24c-5.12 0-10.24 5.12-10.24 10.24v168.96c5.12 5.12 10.24 10.24 15.36 10.24 5.12 0 10.24 5.12 10.24 5.12 5.12 0 10.24 0 15.36-5.12 5.12-5.12 5.12-10.24 5.12-20.48v-143.36c-5.12-10.24-5.12-15.36-10.24-20.48z" fill="#1296db" p-id="8623"></path></svg>