<svg t="1614284540009" class="icon" viewBox="0 0 1024 1024" version="1.1" xmlns="http://www.w3.org/2000/svg" p-id="7750" width="32" height="32"><path d="M512 1024a512 512 0 1 1 512-512 512 512 0 0 1-512 512z m-137.762133-286.378667V397.380267h-102.4V737.621333z m-51.2-488.448a50.858667 50.858667 0 0 0-53.9136 53.589334 50.875733 50.875733 0 0 0 53.248 52.906666 53.265067 53.265067 0 1 0 0.6656-106.461866z m133.410133 488.448h102.4v-196.266666a74.9568 74.9568 0 0 1 4.061867-26.453334 54.954667 54.954667 0 0 1 51.882666-39.645866c37.034667 0 51.882667 29.917867 51.882667 73.762133V737.621333h102.4V535.893333c0-100.181333-50.517333-146.1248-117.9136-146.1248a119.808 119.808 0 0 0-101.7344 54.272h-2.030933l-4.676267-46.660266h-88.968533c1.348267 29.917867 2.696533 66.0992 2.696533 108.544V737.621333z" fill="#0073B1" p-id="7751"></path></svg>