<svg t="1614335921365" class="icon" viewBox="0 0 1280 1024" version="1.1" xmlns="http://www.w3.org/2000/svg" p-id="26020" width="30" height="30"><path d="M639.346818 391.126964a190.725028 190.725028 0 1 0 190.804947 190.725029A190.844906 190.844906 0 0 0 639.346818 391.126964z m500.568286-274.918959H921.858017l-6.193669-19.979576A139.617274 139.617274 0 0 0 766.976347 1.005772h-255.259058a138.658254 138.658254 0 0 0-148.688001 95.342534l-6.193668 19.979576H138.778532A138.498418 138.498418 0 0 0 0.0004 254.906218V886.500561a135.221767 135.221767 0 0 0 13.626071 59.459217 138.218704 138.218704 0 0 0 123.873368 78.040222h1002.415265A138.498418 138.498418 0 0 0 1278.693236 885.261827V253.667484a139.057846 139.057846 0 0 0-138.778132-137.499439zM154.88207 346.532552a73.085287 73.085287 0 1 1 73.085287-73.085288 74.044307 74.044307 0 0 1-73.085287 73.085288zM639.346818 907.559034a326.346387 326.346387 0 1 1 325.866878-327.145571A326.186551 326.186551 0 0 1 639.346818 907.559034z" fill="rgb(114 46 209 / 28%)" p-id="26021"></path></svg>