<svg t="1614284157130" class="icon" viewBox="0 0 1024 1024" version="1.1" xmlns="http://www.w3.org/2000/svg" p-id="5942" width="32" height="32"><path d="M512 512m-512 0a512 512 0 1 0 1024 0 512 512 0 1 0-1024 0Z" fill="#4D76A1" p-id="5943"></path><path d="M492.66013 736.557881h40.185676s12.138757-1.332525 18.335912-8.013405c5.704303-6.133267 5.521765-17.651396 5.521765-17.651396s-0.784912-53.921637 24.241007-61.862027c24.66997-7.821741 56.349389 52.114514 89.927199 75.159899 25.390994 17.441477 44.685229 13.617313 44.685229 13.617312l89.781169-1.250383s46.966951-2.893223 24.697351-39.8206c-1.825377-3.020999-12.969304-27.316767-66.754038-77.240828-56.294627-52.251417-48.75582-43.799922 19.056936-134.183465 41.299155-55.044244 57.80969-88.649435 52.653001-103.042533-4.919391-13.708581-35.293665-10.085208-35.293665-10.085208l-101.089379 0.629755s-7.493173-1.022211-13.051446 2.299975c-5.430497 3.258298-8.926094 10.851866-8.926094 10.851867s-15.99943 42.595173-37.338087 78.819779c-45.013797 76.437663-63.012015 80.471746-70.368284 75.725766-17.11291-11.061785-12.841527-44.438804-12.841527-68.150451 0-74.073799 11.235196-104.959179-21.877144-112.95433-10.98877-2.655924-19.07519-4.408286-47.176869-4.691219-36.06945-0.374202-66.598881 0.109523-83.885201 8.579272-11.499875 5.631288-20.371208 18.180755-14.968091 18.901779 6.68088 0.894435 21.813255 4.079718 29.835787 15.004599 10.359015 14.091911 9.993939 45.743948 9.993939 45.743948s5.950729 87.19826-13.900246 98.031873c-13.626439 7.429284-32.3183-7.739599-72.449213-77.085671-20.562872-35.521837-36.087704-74.785696-36.087704-74.785697s-2.993618-7.338016-8.332846-11.262576c-6.480088-4.755107-15.533958-6.27017-15.533959-6.27017l-96.060465 0.629755s-14.420478 0.401583-19.714072 6.671753c-4.709473 5.576527-0.374202 17.11291-0.374202 17.11291s75.205533 175.948091 160.359371 264.615779c78.080502 81.293166 166.748191 75.953938 166.74819 75.953938z" fill="#FFFFFF" p-id="5944"></path></svg>